<svg xmlns="http://www.w3.org/2000/svg" viewBox="0 0 27 61.5"><path d="M18.45,52.95,13.5,57.9,8.55,52.95a1.48,1.48,0,1,0-2.1,2.1l6,6a1.45,1.45,0,0,0,2.1,0l6-6a1.48,1.48,0,0,0-2.1-2.1Z"/><path d="M20.55,44.7a1.45,1.45,0,0,0-2.1,0l-5,4.95L8.55,44.7a1.48,1.48,0,1,0-2.1,2.1l6,6a1.45,1.45,0,0,0,2.1,0l6-6A1.45,1.45,0,0,0,20.55,44.7Z"/><path d="M27,27V13.5a13.5,13.5,0,0,0-27,0V27a13.5,13.5,0,0,0,27,0ZM13.5,37.5A10.53,10.53,0,0,1,3,27V13.5a10.5,10.5,0,0,1,21,0V27A10.53,10.53,0,0,1,13.5,37.5Z"/><path d="M13.5,8.25A1.5,1.5,0,0,0,12,9.75v4.5a1.5,1.5,0,0,0,3,0V9.75A1.5,1.5,0,0,0,13.5,8.25Z"/></svg>
