<svg class="gfrds_icons">
  <defs>
    <symbol id="icon-facebook" viewBox="0 0 264 448">
      <path d="M239.75 3v66h-39.25q-21.5 0-29 9t-7.5 27v47.25h73.25l-9.75 74h-63.5v189.75h-76.5v-189.75h-63.75v-74h63.75v-54.5q0-46.5 26-72.125t69.25-25.625q36.75 0 57 3z"></path>
    </symbol>
    <symbol id="icon-twitter" viewBox="0 0 416 448">
      <path d="M405 102q-16.75 24.5-40.5 41.75 0.25 3.5 0.25 10.5 0 32.5-9.5 64.875t-28.875 62.125-46.125 52.625-64.5 36.5-80.75 13.625q-67.75 0-124-36.25 8.75 1 19.5 1 56.25 0 100.25-34.5-26.25-0.5-47-16.125t-28.5-39.875q8.25 1.25 15.25 1.25 10.75 0 21.25-2.75-28-5.75-46.375-27.875t-18.375-51.375v-1q17 9.5 36.5 10.25-16.5-11-26.25-28.75t-9.75-38.5q0-22 11-40.75 30.25 37.25 73.625 59.625t92.875 24.875q-2-9.5-2-18.5 0-33.5 23.625-57.125t57.125-23.625q35 0 59 25.5 27.25-5.25 51.25-19.5-9.25 28.75-35.5 44.5 23.25-2.5 46.5-12.5z"></path>
    </symbol>
    <symbol id="icon-soundcloud" viewBox="0 0 576 448">
      <path d="M196 343l4-60.25-4-130.75q-0.25-2.5-1.875-4.25t-4.125-1.75q-2.25 0-4 1.75t-1.75 4.25l-3.5 130.75 3.5 60.25q0.25 2.5 1.875 4.125t3.875 1.625q5.5 0 6-5.75zM270 335.75l2.75-52.75-3-146.5q0-4-3.25-6-2-1.25-4-1.25t-4 1.25q-3.25 2-3.25 6l-0.25 1.5-2.5 144.75q0 0.25 2.75 59v0.25q0 2.5 1.5 4.25 2.25 2.75 5.75 2.75 2.75 0 5-2.25 2.25-1.75 2.25-5zM8.75 250.75l5 32-5 31.5q-0.5 2.25-2.25 2.25t-2.25-2.25l-4.25-31.5 4.25-32q0.5-2.25 2.25-2.25t2.25 2.25zM30.25 231l6.5 51.75-6.5 50.75q-0.5 2.25-2.5 2.25-2.25 0-2.25-2.5l-5.75-50.5 5.75-51.75q0-2.25 2.25-2.25 2 0 2.5 2.25zM53.25 221.5l6.25 61.25-6.25 59.25q0 2.75-2.75 2.75-2.5 0-3-2.75l-5.25-59.25 5.25-61.25q0.5-3 3-3 2.75 0 2.75 3zM76.75 219.75l5.75 63-5.75 61q-0.5 3.25-3.5 3.25-3.25 0-3.25-3.25l-5.25-61 5.25-63q0-3.25 3.25-3.25 3 0 3.5 3.25zM100.25 224.25l5.25 58.5-5.25 61.5q-0.5 4-4 4-1.5 0-2.625-1.125t-1.125-2.875l-5-61.5 5-58.5q0-1.5 1.125-2.625t2.625-1.125q3.5 0 4 3.75zM123.75 187.75l5.25 95-5.25 61.5q0 1.75-1.25 3.125t-3 1.375q-4 0-4.5-4.5l-4.5-61.5 4.5-95q0.5-4.5 4.5-4.5 1.75 0 3 1.375t1.25 3.125zM147.25 166.25l4.75 117-4.75 61q0 2-1.375 3.375t-3.375 1.375q-4.5 0-5-4.75l-4-61 4-117q0.5-4.75 5-4.75 2 0 3.375 1.375t1.375 3.375zM171.75 156.25l4.5 126.5-4.5 60.5q-0.5 5.25-5.5 5.25-4.75 0-5.25-5.25l-4-60.5 4-126.5q0-2.25 1.625-3.875t3.625-1.625q2.25 0 3.75 1.625t1.75 3.875zM269.75 341.75v0 0zM220.25 155.25l3.75 127.5-3.75 59.75q0 2.5-1.875 4.375t-4.375 1.875-4.25-1.75-2-4.5l-3.5-59.75 3.5-127.5q0-2.75 1.875-4.5t4.375-1.75 4.375 1.75 1.875 4.5zM245 160l3.5 123-3.5 59q0 2.75-2 4.75t-4.75 2-4.75-2-2.25-4.75l-3-59 3-123q0.25-3 2.25-5t4.75-2 4.625 2 2.125 5zM298 283l-3.5 57.75q0 3.25-2.25 5.5t-5.5 2.25-5.5-2.25-2.5-5.5l-1.5-28.5-1.5-29.25 3-159v-0.75q0.5-3.75 3-6 2.25-1.75 5-1.75 2 0 3.75 1.25 3.5 2 4 6.5zM576 278.25q0 29.25-20.75 49.875t-50 20.625h-196.5q-3.25-0.5-5.5-2.75t-2.25-5.5v-224.75q0-5.75 7-8.25 21.25-8.5 45.25-8.5 48.75 0 84.5 32.875t40 80.875q13.25-5.5 27.5-5.5 29.25 0 50 20.75t20.75 50.25z"></path>
    </symbol>
    <symbol id="icon-instagram" viewBox="0 0 384 448">
      <path d="M256 224q0-26.5-18.75-45.25t-45.25-18.75-45.25 18.75-18.75 45.25 18.75 45.25 45.25 18.75 45.25-18.75 18.75-45.25zM290.5 224q0 41-28.75 69.75t-69.75 28.75-69.75-28.75-28.75-69.75 28.75-69.75 69.75-28.75 69.75 28.75 28.75 69.75zM317.5 121.5q0 9.5-6.75 16.25t-16.25 6.75-16.25-6.75-6.75-16.25 6.75-16.25 16.25-6.75 16.25 6.75 6.75 16.25zM192 66.5q-1.75 0-19.125-0.125t-26.375 0-24.125 0.75-25.75 2.5-17.875 4.625q-12.5 5-22 14.5t-14.5 22q-2.75 7.25-4.625 17.875t-2.5 25.75-0.75 24.125 0 26.375 0.125 19.125-0.125 19.125 0 26.375 0.75 24.125 2.5 25.75 4.625 17.875q5 12.5 14.5 22t22 14.5q7.25 2.75 17.875 4.625t25.75 2.5 24.125 0.75 26.375 0 19.125-0.125 19.125 0.125 26.375 0 24.125-0.75 25.75-2.5 17.875-4.625q12.5-5 22-14.5t14.5-22q2.75-7.25 4.625-17.875t2.5-25.75 0.75-24.125 0-26.375-0.125-19.125 0.125-19.125 0-26.375-0.75-24.125-2.5-25.75-4.625-17.875q-5-12.5-14.5-22t-22-14.5q-7.25-2.75-17.875-4.625t-25.75-2.5-24.125-0.75-26.375 0-19.125 0.125zM384 224q0 57.25-1.25 79.25-2.5 52-31 80.5t-80.5 31q-22 1.25-79.25 1.25t-79.25-1.25q-52-2.5-80.5-31t-31-80.5q-1.25-22-1.25-79.25t1.25-79.25q2.5-52 31-80.5t80.5-31q22-1.25 79.25-1.25t79.25 1.25q52 2.5 80.5 31t31 80.5q1.25 22 1.25 79.25z"></path>
    </symbol>
    <symbol id="icon-scrolldown" viewBox="0 0 27 61.5">
      <path d="M18.45,52.95,13.5,57.9,8.55,52.95a1.48,1.48,0,1,0-2.1,2.1l6,6a1.45,1.45,0,0,0,2.1,0l6-6a1.48,1.48,0,0,0-2.1-2.1Z"/><path d="M20.55,44.7a1.45,1.45,0,0,0-2.1,0l-5,4.95L8.55,44.7a1.48,1.48,0,1,0-2.1,2.1l6,6a1.45,1.45,0,0,0,2.1,0l6-6A1.45,1.45,0,0,0,20.55,44.7Z"/><path d="M27,27V13.5a13.5,13.5,0,0,0-27,0V27a13.5,13.5,0,0,0,27,0ZM13.5,37.5A10.53,10.53,0,0,1,3,27V13.5a10.5,10.5,0,0,1,21,0V27A10.53,10.53,0,0,1,13.5,37.5Z"/><path d="M13.5,8.25A1.5,1.5,0,0,0,12,9.75v4.5a1.5,1.5,0,0,0,3,0V9.75A1.5,1.5,0,0,0,13.5,8.25Z"/>
    </symbol>
    <symbol id="icon-marker" viewBox="0 0 53 76">
      <path d="M26,0C11.6,0,0,9.7,0,30.3s25.2,45.6,26,45.6c0.8,0,26-24.9,26-45.6S40.4,0,26,0z M26,45c-9.9,0-18-8.1-18-18
    		S16.1,9,26,9s18,8.1,18,18S35.9,45,26,45z"/>
    </symbol>
    <symbol id="icon-arrow-top" viewBox="0 0 36.09 22.3">
      <polyline points="0.38 21.98 18.04 0.78 35.7 21.98"/>
    </symbol>
    <symbol id="icon-plus" viewBox="0 0 768 768">
      <path d="M384 64q13.25 0 22.625 9.375t9.375 22.625v256h256q13.25 0 22.625 9.375t9.375 22.625-9.375 22.625-22.625 9.375h-256v256q0 13.25-9.375 22.625t-22.625 9.375-22.625-9.375-9.375-22.625v-256h-256q-13.25 0-22.625-9.375t-9.375-22.625 9.375-22.625 22.625-9.375h256v-256q0-13.25 9.375-22.625t22.625-9.375z"></path>
    </symbol>
  </defs>
</svg>
