<svg xmlns="http://www.w3.org/2000/svg" viewBox="0 0 125.28 18.5"><path d="M10.55.52l-9 4.87s9 1.82 9 8.19c0 0 11.64-9.61 0-13.06"/><path d="M10.55 13.17c4.74 0 9.25-2.69 8.51-5.16l2 2.76s-.92 6-10.55 7.73C.91 16.71 0 10.84 0 10.84L2 8c-.73 2.47 3.76 5.17 8.5 5.17z"/><path d="M33.47 0h6a6 6 0 0 1 0 11.94h-2.93v5.81h-3.23V0zm3.07 8.73h2.75a2.76 2.76 0 1 0 0-5.51h-2.75zM59.91.06h2.97v.12l5.78 17.34v.26h-3.05v-.08l-1.41-4.23h-5.6l-1.41 4.22v.14h-3.26v-.25L59.73.19V0zm-.3 10.19h3.46l-1.73-5.18zM78.11 0h6a6 6 0 0 1 2.65 11.25l.17.34.07.14 2.87 5.73h.06v.31h-3.24v-.12L83.84 12h-2.67v5.81H78V0zm3.06 8.73h2.76a2.76 2.76 0 0 0 0-5.51h-2.76zM100.29 0h3.07v17.76h-3.22V0zm19.01 0h3.06v3.24h-3.06a2.76 2.76 0 0 0-.15 5.51V5.84h.31a6 6 0 0 1 0 11.94h-4.67v-3.21h4.52a2.76 2.76 0 0 0 .15-5.51V12h-.31a6 6 0 0 1 0-11.94h.15z" class="hidden-on-small"/></svg>