<svg viewBox="0 0 250 323" xmlns="http://www.w3.org/2000/svg">
  <path d="M182.9 141.083l-48.435 28.515V63.585H115.28V322.27h19.185V191.86l58.166-34.24-9.73-16.537zM46.194 154.455l43.028 28.265 10.527-16.033-43.03-28.267-10.527 16.035zm-27.008 3.66c0-23.425 16.608-44.055 39.49-49.05l9.974-2.18-2.802-9.82c-1.543-5.423-2.323-10.983-2.323-16.528 0-15.62 5.914-29.85 15.557-40.69l-12.684-14.52c-13.634 14.436-22.06 33.838-22.06 55.21 0 4.175.34 8.357 1.002 12.494C18.582 102.988 0 128.99 0 158.118c0 38.29 31.15 69.444 69.44 69.444h24.907v-19.19H69.44c-27.713 0-50.254-22.54-50.254-50.254zm230.56 0c0 38.29-31.163 69.444-69.463 69.444h-25.738v-19.19h25.74c27.722 0 50.274-22.54 50.274-50.257 0-23.425-16.61-44.055-39.49-49.05l-9.966-2.178 2.786-9.818c1.55-5.443 2.33-11.003 2.33-16.533 0-33.832-27.518-61.348-61.348-61.348-11.303 0-21.865 3.125-30.967 8.473L81.11 13.02C93.728 4.82 108.738 0 124.874 0c44.407 0 80.535 36.13 80.535 80.537 0 4.17-.34 8.346-1.003 12.494 26.757 9.957 45.34 35.96 45.34 65.087z" fill="#FFF" fill-rule="evenodd"/>
</svg>
