<svg viewBox="0 0 536 310" xmlns="http://www.w3.org/2000/svg">
  <path d="M220.276 274.654c2.408-3.41 7.342-10.105 10.49-14.034-13.9-6.436-31.874-6.94-31.874-17.825 0-5.314 4.434-8.982 13.04-8.982 7.2 0 14.543 2.165 24.152 7.718l8.225-13.77c-10.24-6.45-21.01-9.62-32.38-9.62-18.48 0-30.75 10.51-30.75 25.55 0 23.52 24.43 25.17 39.09 30.98M.29 1.79h34.92c12.777 0 22.264 5.31 27.198 13.15-4.177 2.023-9.49 5.436-13.664 9.104-3.16-4.554-7.59-6.955-13.535-6.955H17.75v31.23h17.46c17.582 0 14.727-22.13 37.75-22.13 15.56 0 25.048 9.99 26.694 22.5h38.584V36.94c0-11.887-6.2-20.74-19.23-20.74-6.324 0-11.64 2.91-16.57 8.98-4.175-3.795-8.73-6.956-13.917-9.23C95.1 6.467 104.08.524 119.01.524c22.14 0 36.56 12.77 36.56 37.047V90.3h-17.332V64.13H99.906v26.174H82.45V52.62c0-7.08-3.797-11.254-9.617-11.254-13.662 0-9.54 22.255-38.89 22.255H17.748v26.69H.29V1.79zm264.275 59.05c-1.517-3.793-2.405-9.863-2.405-14.794 0-26.556 19.23-45.52 45.543-45.52 11.768 0 21.76 3.412 29.352 8.596l-7.844 13.53c-6.7-4.17-13.53-6.322-21.5-6.322-15.81 0-27.7 11.886-27.7 29.716 0 2.275.26 4.424.76 6.447-4.68 3.29-10.62 6.324-16.19 8.348zm-72.24-43.75v29.208h18.725c9.994 0 15.436-6.826 15.436-15.047 0-7.58-5.695-14.16-15.437-14.16h-18.72zM174.87 1.79h36.18c19.358 0 33.02 11.633 33.02 29.715 0 12.77-6.95 22-17.96 26.046l4.43 5.57c7.845 9.87 14.55 12.77 25.05 12.77 8.856 0 16.952-2.53 29.476-11.13 7.338 8.35 14.298 11.01 23.404 11.01 7.97 0 14.295-2.15 22.52-6.95l7.716 13.53c-7.97 5.44-18.09 9.23-30.236 9.23-9.867 0-18.725-2.53-26.06-7.21-9.49 5.06-18.724 7.21-27.327 7.21-16.823 0-28.337-5.56-38.71-19.09l-8.35-10.87h-15.69v28.7H174.88V1.79zm224.35 269.46v36.67h-16.825v-52.223c6.45 3.54 13.41 10.873 16.824 15.552zm-41.114-23.395v60.065h-17.208v-57.66c5.313-1.644 11.512-2.53 17.208-2.405zm99.18 60.065H444.13l-14.677-20.993c-31.626-45.142-48.326-53.106-71.224-53.106-5.82 0-12.02 1.02-17.34 2.53v-15.93c5.44-1.52 12.52-2.28 18.72-2.28 29.09 0 47.69 10.88 73.62 47.68l7.21 10.24v-56.65h16.82v88.52zm78.697-15.3v15.3h-61.737v-88.51h61.737v15.297h-44.406V255.7h40.106v15.298h-40.106v21.623m-309.37-132.58c6.2-1.52 11.893-4.17 17.206-8.72v47.8h-17.205v-39.08zm-99.71-49.44h35.548c29.604 0 38.733 22 54.42 22 6.452 0 9.993-4.17 9.993-11.25V110.6h16.7v10.875c0 14.288-9.74 26.3-26.694 26.3-26.44 0-35.57-21.875-53.788-21.875H99.953v29.207h18.596c5.94 0 10.37-1.77 13.53-5.943 3.92 3.413 8.47 6.576 13.91 9.356-2.91 3.67-7.09 6.325-12.4 8.094l6.45 9.61c4.8 7.208 7.08 8.726 11.89 8.726 2.02 0 3.92-.504 5.56-1.14l3.415 14.29c-3.035 1.39-7.338 2.276-11.638 2.276-9.24 0-16.958-3.792-25.05-16.692l-8.35-13.276H99.95v28.704H82.496V110.6zm181.45 88.52H250.16l-35.55-88.51h18.594l24.037 62.97 23.92-62.97h18.34m90.09 77.64l9.87-13.4c10.5 7.59 18.35 9.87 26.57 9.87 8.86 0 13.538-3.54 13.538-9.863 0-11-19.1-11.13-32.89-17.702 4.553-4.93 8.225-9.984 11.13-14.03 13.91 5.69 39.47 6.954 39.47 30.727 0 15.93-11.39 26.55-29.986 26.55-11.893 0-25.68-3.41-37.7-12.14zm-57.44-26.05v21.62h44.28v15.3h-61.74V110.6h60.47v15.3h-43.01v20.99H362c32.64 0 26.694-37.555 62.747-37.555 10.878 0 21.506 3.666 31.122 9.483l-8.23 13.91c-9.49-5.44-16.32-7.714-23.28-7.714-23.41 0-20.63 37.175-61.11 37.175h-31.12zM99.51 250.84h-5.85v-21.69h5.85c6.915 0 10.882 4.38 10.882 10.933 0 6.433-3.963 10.75-10.88 10.75m-.704-31.62h-16.44v41.55H98.8c14.366 0 23.12-8.33 23.12-20.804 0-12.46-8.754-20.75-23.12-20.75m43.24 25.37h16.553v-9.64h-16.55v-5.91h18.86v-9.83h-30.036v41.55h30.16V251H142.04"/>
  <path d="M263.416 255.698c-29.35 0-25.427 37.806-49.97 37.806-7.717 0-15.306-2.404-25.553-9.86l-9.868 13.402c11.51 8.345 24.29 12.138 35.674 12.138 33.65 0 35.67-38.187 48.45-38.187h1.26v36.924h61.74v-15.3h-44.28V271h39.97v-15.3h-57.43zm17.46-12.178v-8.815h44.278v-15.297h-61.702v24.113"/>
</svg>
