<svg xmlns="http://www.w3.org/2000/svg" viewBox="0 0 125.28 18.5">
  <g>
    <path d="M10.55.52l-9,4.87s9,1.82,9,8.19c0,0,11.64-9.61,0-13.06"/>
    <path d="M10.55,13.17h0c4.74,0,9.25-2.69,8.51-5.16l2,2.76s-.92,6-10.55,7.73C.91,16.71,0,10.84,0,10.84L2,8c-.73,2.47,3.76,5.17,8.5,5.17Z"/>
  </g>
  <g class="hidden-on-small">
    <path d="M33.47,0h6a6,6,0,0,1,0,11.94H36.54v5.81H33.31V0Zm3.07,8.73h2.75a2.76,2.76,0,1,0,0-5.51H36.54Z"/>
    <path d="M59.91.06h2.85l.12,0v0h0V.18l5.78,17.34h0v.13l0,.13h0v0h-.13l-.13,0v0H65.73l-.12,0v0h0V17.7l-1.41-4.23h-5.6l-1.41,4.22v.14h0v0l-.12,0H54.18v0l-.12,0h-.13v0h0l0-.13v-.12h0L59.73.19V.06h0V0Zm-.3,10.19h3.46L61.34,5.07Z"/>
    <path d="M78.11,0h6a6,6,0,0,1,2.65,11.25l.17.34.07.14,2.87,5.73h.06v.31H86.69v-.12L83.84,12H81.17v5.81H78V0Zm3.06,8.73h2.76a2.76,2.76,0,0,0,0-5.51H81.17Z"/>
    <path d="M100.29,0h3.07V17.76h-3.22V0Z"/>
    <path d="M119.3,0h3.06V3.24H119.3a2.76,2.76,0,0,0-.15,5.51V5.84h.31a6,6,0,0,1,0,11.94h-4.67V14.57h4.52a2.76,2.76,0,0,0,.15-5.51V12h-.31a6,6,0,0,1,0-11.94h.15Z"/>
  </g>
</svg>
