<svg xmlns="http://www.w3.org/2000/svg" viewBox="0 0 187.2 187.2">
  <g fill="#fff">
    <path d="M21.5 108.7l30.3-30.2-15.1-15.1 8.8-8.9-3-10-18.9 18.9 15.1 15.1-30.2 30.2 70 70 20-20.1-6.5-6.5-13.5 13.5z"/>
    <path d="M119.9 119.9c15.1-15.1 15.1-39.8 0-54.9-15.1-15.1-39.7-15.1-54.9 0-12.7 12.7-14.7 32.1-6.1 46.9l8.7-3.4c-7.4-11.4-6.1-26.9 3.9-36.9 11.5-11.5 30.3-11.5 41.8 0 11.5 11.5 11.5 30.3 0 41.8-10.7 10.7-27.5 11.4-39.1 2.4l-9.6 3.8.3.3c15.3 15.2 39.9 15.2 55 0z"/>
    <path d="M82.3 82.3c1.5-1.5 3.2-2.6 5.1-3.3v-9.6c-4.3.9-8.3 3-11.6 6.4-9.2 9.2-9.2 24.3 0 33.5s24.3 9.2 33.5 0 9.2-24.3 0-33.5c-3.6-3.6-8-5.7-12.6-6.6v9.5c2.2.7 4.3 1.9 6.1 3.6 5.6 5.6 5.6 14.8 0 20.4-5.6 5.6-14.8 5.6-20.4 0-5.8-5.6-5.8-14.8-.1-20.4z"/>
    <path d="M78.5 38.7L63.4 23.6 49.9 37.1l3 10 10.5-10.4 15.1 15.1 30.2-30.3 56.9 57-67.1 67 6.6 6.6 73.6-73.6-70-70z"/>
  </g>
</svg>
